ffmpeg version 4.2.7-0ubuntu0.1 Copyright (c) 2000-2022 the FFmpeg developers
  built with gcc 9 (Ubuntu 9.4.0-1ubuntu1~20.04.1)
  configuration: --prefix=/usr --extra-version=0ubuntu0.1 --toolchain=hardened --libdir=/usr/lib/x86_64-linux-gnu --incdir=/usr/include/x86_64-linux-gnu --arch=amd64 --enable-gpl --disable-stripping --enable-avresample --disable-filter=resample --enable-avisynth --enable-gnutls --enable-ladspa --enable-libaom --enable-libass --enable-libbluray --enable-libbs2b --enable-libcaca --enable-libcdio --enable-libcodec2 --enable-libflite --enable-libfontconfig --enable-libfreetype --enable-libfribidi --enable-libgme --enable-libgsm --enable-libjack --enable-libmp3lame --enable-libmysofa --enable-libopenjpeg --enable-libopenmpt --enable-libopus --enable-libpulse --enable-librsvg --enable-librubberband --enable-libshine --enable-libsnappy --enable-libsoxr --enable-libspeex --enable-libssh --enable-libtheora --enable-libtwolame --enable-libvidstab --enable-libvorbis --enable-libvpx --enable-libwavpack --enable-libwebp --enable-libx265 --enable-libxml2 --enable-libxvid --enable-libzmq --enable-libzvbi --enable-lv2 --enable-omx --enable-openal --enable-opencl --enable-opengl --enable-sdl2 --enable-libdc1394 --enable-libdrm --enable-libiec61883 --enable-nvenc --enable-chromaprint --enable-frei0r --enable-libx264 --enable-shared
  libavutil      56. 31.100 / 56. 31.100
  libavcodec     58. 54.100 / 58. 54.100
  libavformat    58. 29.100 / 58. 29.100
  libavdevice    58.  8.100 / 58.  8.100
  libavfilter     7. 57.100 /  7. 57.100
  libavresample   4.  0.  0 /  4.  0.  0
  libswscale      5.  5.100 /  5.  5.100
  libswresample   3.  5.100 /  3.  5.100
  libpostproc    55.  5.100 / 55.  5.100
Routing option strict to both codec and muxer layer
[h264 @ 0x55f9ac29bd80] Reinit context to 1280x720, pix_fmt: yuv420p
Input #0, mov,mp4,m4a,3gp,3g2,mj2, from '/var/www/html/project/media/video/original/lv_0_20230705184933_l2TxnDL.mp4':
  Metadata:
    major_brand     : isom
    minor_version   : 512
    compatible_brands: isomiso2avc1mp41
    Hw              : 1
                    : 
    LvMetaInfo      : {"data":{"appVersion":"7.0.0","capabilityName":"","ccTtVid":"","draftInfo":{"adjust":0,"aiMatting":0,"audioToText":0,"chroma":0,"coverTemplateId":"","curveSpeed":0,"faceEffectId":"","filterId":"","gameplayAlgorithm":"","graphs":0,"keyframe":0,"mask":0,"mi
    bitRate         : 4000000
                    : 
    copyright       : c2940507180f3cda4919dabffa4cd553
    maxrate         : 30000000
                    : 
    te_is_reencode  : 1
                    : 
    encoder         : bytevehwavc
  Duration: 00:00:55.47, start: 0.000000, bitrate: 3917 kb/s
    Stream #0:0(und): Video: h264 (High), 1 reference frame (avc1 / 0x31637661), yuv420p(tv, bt709, left), 1272x720 (1280x720), 3785 kb/s, 30 fps, 30 tbr, 1000k tbn, 2000k tbc (default)
    Metadata:
      handler_name    : VideoHandler
    Stream #0:1(und): Audio: aac (LC) (mp4a / 0x6134706D), 44100 Hz, stereo, fltp, 128 kb/s (default)
    Metadata:
      handler_name    : SoundHandler
Input #1, png_pipe, from '/var/www/html/project/static/images/templates/logo.png':
  Duration: N/A, bitrate: N/A
    Stream #1:0: Video: png, 1 reference frame, rgba(pc), 1920x1080 [SAR 2835:2835 DAR 16:9], 25 tbr, 25 tbn, 25 tbc
[Parsed_scale_0 @ 0x55f9ac3b3ac0] w:1280 h:720 flags:'bilinear' interl:0
[Parsed_scale_2 @ 0x55f9ac2c1b80] w:1280 h:720 flags:'bilinear' interl:0
Stream mapping:
  Stream #0:0 (h264) -> scale (graph 0)
  Stream #1:0 (png) -> scale (graph 0)
  overlay (graph 0) -> Stream #0:0 (libx264)
  Stream #0:1 -> #0:1 (aac (native) -> aac (native))
Press [q] to stop, [?] for help
[graph_1_in_0_1 @ 0x55f9ac6aa9c0] tb:1/44100 samplefmt:fltp samplerate:44100 chlayout:0x3
[h264 @ 0x55f9ac32bb00] Reinit context to 1280x720, pix_fmt: yuv420p
[Parsed_scale_0 @ 0x55f9ac74c9c0] w:1280 h:720 flags:'bilinear' interl:0
[Parsed_scale_2 @ 0x55f9acc8df80] w:1280 h:720 flags:'bilinear' interl:0
[graph 0 input from stream 0:0 @ 0x55f9acc90440] w:1272 h:720 pixfmt:yuv420p tb:1/1000000 fr:30/1 sar:0/1 sws_param:flags=2
[graph 0 input from stream 1:0 @ 0x55f9acc91400] w:1920 h:1080 pixfmt:rgba tb:1/25 fr:25/1 sar:2835/2835 sws_param:flags=2
[Parsed_scale_0 @ 0x55f9ac74c9c0] w:1272 h:720 fmt:yuv420p sar:0/1 -> w:1280 h:720 fmt:yuv420p sar:0/1 flags:0x2
[Parsed_setsar_1 @ 0x55f9ac319d00] w:1280 h:720 sar:0/1 dar:16/9 -> sar:1/1 dar:16/9
[Parsed_scale_2 @ 0x55f9acc8df80] w:1920 h:1080 fmt:rgba sar:2835/2835 -> w:1280 h:720 fmt:yuva420p sar:1/1 flags:0x2
[Parsed_setsar_3 @ 0x55f9acc8ea00] w:1280 h:720 sar:1/1 dar:16/9 -> sar:1/1 dar:16/9
[Parsed_overlay_4 @ 0x55f9acc8f600] main w:1280 h:720 fmt:yuv420p overlay w:1280 h:720 fmt:yuva420p
[Parsed_overlay_4 @ 0x55f9acc8f600] [framesync @ 0x55f9acc8f768] Selected 1/1000000 time base
[Parsed_overlay_4 @ 0x55f9acc8f600] [framesync @ 0x55f9acc8f768] Sync level 2
[libx264 @ 0x55f9ac2bf140] using SAR=1/1
[libx264 @ 0x55f9ac2bf140] using cpu capabilities: MMX2 SSE2Fast SSSE3 SSE4.2 AVX FMA3 BMI2 AVX2
[libx264 @ 0x55f9ac2bf140] profile High, level 3.1
[libx264 @ 0x55f9ac2bf140] 264 - core 155 r2917 0a84d98 - H.264/MPEG-4 AVC codec - Copyleft 2003-2018 - http://www.videolan.org/x264.html - options: cabac=1 ref=1 deblock=1:0:0 analyse=0x3:0x113 me=hex subme=2 psy=1 psy_rd=1.00:0.00 mixed_ref=0 me_range=16 chroma_me=1 trellis=0 8x8dct=1 cqm=0 deadzone=21,11 fast_pskip=1 chroma_qp_offset=0 threads=22 lookahead_threads=5 sliced_threads=0 nr=0 decimate=1 interlaced=0 bluray_compat=0 constrained_intra=0 bframes=3 b_pyramid=2 b_adapt=1 b_bias=0 direct=1 weightb=1 open_gop=0 weightp=1 keyint=250 keyint_min=25 scenecut=40 intra_refresh=0 rc_lookahead=10 rc=crf mbtree=1 crf=18.0 qcomp=0.60 qpmin=0 qpmax=69 qpstep=4 ip_ratio=1.40 aq=1:1.00
Output #0, mp4, to '/var/www/html/project/media/video/watermarks/lv_0_20230705184933_l2TxnDL.mp4':
  Metadata:
    major_brand     : isom
    minor_version   : 512
    compatible_brands: isomiso2avc1mp41
    Hw              : 1
                    : 
    LvMetaInfo      : {"data":{"appVersion":"7.0.0","capabilityName":"","ccTtVid":"","draftInfo":{"adjust":0,"aiMatting":0,"audioToText":0,"chroma":0,"coverTemplateId":"","curveSpeed":0,"faceEffectId":"","filterId":"","gameplayAlgorithm":"","graphs":0,"keyframe":0,"mask":0,"mi
    bitRate         : 4000000
                    : 
    copyright       : c2940507180f3cda4919dabffa4cd553
    maxrate         : 30000000
                    : 
    te_is_reencode  : 1
                    : 
    encoder         : Lavf58.29.100
    Stream #0:0: Video: h264 (libx264), 1 reference frame (avc1 / 0x31637661), yuv420p, 1280x720 [SAR 1:1 DAR 16:9], q=-1--1, 30 fps, 15360 tbn, 30 tbc (default)
    Metadata:
      encoder         : Lavc58.54.100 libx264
    Side data:
      cpb: bitrate max/min/avg: 0/0/0 buffer size: 0 vbv_delay: -1
    Stream #0:1(und): Audio: aac (LC) (mp4a / 0x6134706D), 44100 Hz, stereo, fltp, delay 1024, 128 kb/s (default)
    Metadata:
      handler_name    : SoundHandler
      encoder         : Lavc58.54.100 aac
[Parsed_overlay_4 @ 0x55f9acc8f600] [framesync @ 0x55f9acc8f768] Sync level 0
No more output streams to write to, finishing.
frame= 1663 fps= 83 q=-1.0 Lsize=   40038kB time=00:00:55.42 bitrate=5917.6kbits/s speed=2.76x    
[AVIOContext @ 0x55f9ac29a0c0] Statistics: 0 seeks, 40 writeouts
video:39110kB audio:870kB subtitle:0kB other streams:0kB global headers:0kB muxing overhead: 0.146133%
Input file #0 (/var/www/html/project/media/video/original/lv_0_20230705184933_l2TxnDL.mp4):
  Input stream #0:0 (video): 1663 packets read (26229927 bytes); 1663 frames decoded; 
  Input stream #0:1 (audio): 2389 packets read (887763 bytes); 2387 frames decoded (2444288 samples); 
  Total: 4052 packets (27117690 bytes) demuxed
Input file #1 (/var/www/html/project/static/images/templates/logo.png):
  Input stream #1:0 (video): 1 packets read (111578 bytes); 1 frames decoded; 
  Total: 1 packets (111578 bytes) demuxed
Output file #0 (/var/www/html/project/media/video/watermarks/lv_0_20230705184933_l2TxnDL.mp4):
  Output stream #0:0 (video): 1663 frames encoded; 1663 packets muxed (40048435 bytes); 
  Output stream #0:1 (audio): 2387 frames encoded (2444288 samples); 2388 packets muxed (890368 bytes); 
  Total: 4051 packets (40938803 bytes) muxed
[AVIOContext @ 0x55f9ac2f8d40] Statistics: 2 seeks, 160 writeouts
[libx264 @ 0x55f9ac2bf140] frame I:7     Avg QP:17.09  size:116434
[libx264 @ 0x55f9ac2bf140] frame P:606   Avg QP:20.39  size: 42338
[libx264 @ 0x55f9ac2bf140] frame B:1050  Avg QP:22.56  size: 12930
[libx264 @ 0x55f9ac2bf140] consecutive B-frames: 14.1%  3.7%  4.0% 78.2%
[libx264 @ 0x55f9ac2bf140] mb I  I16..4:  7.7% 19.6% 72.7%
[libx264 @ 0x55f9ac2bf140] mb P  I16..4:  4.6% 13.5%  4.5%  P16..4: 35.3% 21.5% 15.0%  0.0%  0.0%    skip: 5.6%
[libx264 @ 0x55f9ac2bf140] mb B  I16..4:  1.0%  1.0%  0.1%  B16..8: 29.3% 13.4%  2.2%  direct:17.1%  skip:35.9%  L0:33.1% L1:38.0% BI:28.9%
[libx264 @ 0x55f9ac2bf140] 8x8 transform intra:56.6% inter:49.2%
[libx264 @ 0x55f9ac2bf140] coded y,uvDC,uvAC intra: 68.0% 66.1% 21.6% inter: 29.8% 18.7% 1.0%
[libx264 @ 0x55f9ac2bf140] i16 v,h,dc,p: 15% 61% 17%  7%
[libx264 @ 0x55f9ac2bf140] i8 v,h,dc,ddl,ddr,vr,hd,vl,hu: 16% 43% 18%  3%  3%  3%  6%  3%  6%
[libx264 @ 0x55f9ac2bf140] i4 v,h,dc,ddl,ddr,vr,hd,vl,hu: 20% 34% 12%  4%  6%  5%  8%  4%  7%
[libx264 @ 0x55f9ac2bf140] i8c dc,h,v,p: 40% 41% 13%  5%
[libx264 @ 0x55f9ac2bf140] Weighted P-Frames: Y:4.3% UV:1.0%
[libx264 @ 0x55f9ac2bf140] kb/s:5779.59
[aac @ 0x55f9ac30aa00] Qavg: 137.734
[AVIOContext @ 0x55f9ac2a3040] Statistics: 93539827 bytes read, 2678 seeks
[AVIOContext @ 0x55f9ac2b7a40] Statistics: 111578 bytes read, 0 seeks
